<?xml version="1.0" encoding="UTF-8" standalone="no"?>
<!-- Created with Inkscape (http://www.inkscape.org/) -->

<svg
   width="366"
   height="186"
   viewBox="0 0 96.837498 49.2125"
   version="1.1"
   id="svg1"
   inkscape:version="1.3.2 (091e20e, 2023-11-25, custom)"
   sodipodi:docname="logo.svg"
   xmlns:inkscape="http://www.inkscape.org/namespaces/inkscape"
   xmlns:sodipodi="http://sodipodi.sourceforge.net/DTD/sodipodi-0.dtd"
   xmlns="http://www.w3.org/2000/svg"
   xmlns:svg="http://www.w3.org/2000/svg">
  <sodipodi:namedview
     id="namedview1"
     pagecolor="#ffffff"
     bordercolor="#000000"
     borderopacity="0.25"
     inkscape:showpageshadow="2"
     inkscape:pageopacity="0.0"
     inkscape:pagecheckerboard="0"
     inkscape:deskcolor="#d1d1d1"
     inkscape:document-units="mm"
     inkscape:zoom="2.768771"
     inkscape:cx="262.75195"
     inkscape:cy="159.09586"
     inkscape:window-width="1920"
     inkscape:window-height="991"
     inkscape:window-x="-9"
     inkscape:window-y="-9"
     inkscape:window-maximized="1"
     inkscape:current-layer="layer1" />
  <defs
     id="defs1" />
  <g
     inkscape:label="Camada 1"
     inkscape:groupmode="layer"
     id="layer1">
    <ellipse
       style="fill:#195ab4;fill-opacity:1;stroke-width:2.24747;-inkscape-stroke:none"
       id="path1"
       cx="24.646416"
       cy="24.606251"
       rx="24.646416"
       ry="24.606251" />
    <path
       style="font-size:16.2093px;font-family:'Berlin Sans FB Demi';-inkscape-font-specification:'Berlin Sans FB Demi';letter-spacing:0.528564px;word-spacing:0px;fill:#ffffff;stroke-width:2.24747"
       d="m 12.53062,29.102078 q 0,0.775008 -0.07129,0.917357 -0.08713,0.173981 -0.538638,0.173981 -0.07129,0 -0.316846,0 -0.237635,-0.0079 -0.40398,-0.0079 -0.158423,0 -0.483189,-0.01582 -0.316847,-0.01582 -0.47527,-0.01582 -0.126738,0 -1.1406459,-1.518382 -1.0139077,-1.518383 -1.0535134,-1.526292 -0.1663443,0.13444 -1.1406462,1.597466 -0.9346961,1.399759 -1.0931192,1.447208 -0.1108961,0.03163 -0.5940865,0.03163 -1.6238365,0 -1.6238365,-0.166072 0,-0.166074 -0.023763,-0.474495 -0.015842,-0.308421 -0.015842,-0.458679 0,-0.980622 0.1188172,-1.154603 0.00792,-0.0079 1.3069904,-1.731906 1.0535135,-1.391851 1.0535135,-1.589557 0,-0.197706 -1.0535135,-1.565833 -0.665377,-0.846182 -1.3228327,-1.700273 -0.07129,-0.102807 -0.087133,-0.340054 -0.00792,-0.166073 0,-0.45077 0.023763,-0.340054 0.023763,-0.379596 0,-0.158165 -0.031685,-0.490311 -0.023763,-0.332146 -0.023763,-0.490311 0,-0.150257 0.2772403,-0.150257 0.1821866,0 0.5386384,0.02372 0.356452,0.02372 0.5307173,0.02372 0.1584232,0 0.4673481,-0.01582 0.308925,-0.01582 0.4594269,-0.01582 0.1267385,0 1.1485673,1.542108 1.02975,1.534199 1.0772769,1.534199 0.1584231,-0.0949 1.1644096,-1.613282 0.9584601,-1.463025 1.1010411,-1.463025 h 1.885234 q 0.27724,0 0.27724,0.13444 v 1.921703 q 0,0.205615 -1.227778,1.795172 -1.219858,1.589557 -1.219858,1.684457 0,0.134439 1.077276,1.557924 1.267386,1.66864 1.322834,1.747722 0.110895,0.173981 0.110895,1.202053 z m 11.27008,-5.81256 q 0,1.913795 -1.005987,3.100032 -1.077277,1.257411 -2.970433,1.257411 -0.316846,0 -0.95846,-0.03163 -0.633691,-0.03954 -0.950538,-0.03954 -0.340609,0 -0.340609,0.292605 0,0.363779 0.07129,1.08343 0.07129,0.71965 0.07129,1.075521 0,0.181889 -0.166344,0.181889 -0.483191,0 -1.449571,-0.03163 -0.966381,-0.02372 -1.449571,-0.02372 -0.229714,0 -0.229714,-0.229339 0,-0.877814 0.02376,-2.633445 0.03169,-1.763539 0.03169,-2.641354 0,-2.483189 -0.21387,-5.219441 l -0.0079,-0.110716 q -0.01584,-0.150256 0.237635,-0.18189 0.61785,-0.07908 2.724876,-0.07908 1.243622,0 2.384268,0.03163 1.877313,0.05536 3.02588,1.178328 1.172332,1.154604 1.172332,3.02095 z m -3.160541,0.126532 q 0,-1.842622 -1.798102,-1.842622 -1.267384,0 -1.330754,0.142349 -0.05545,0.102807 -0.05545,1.826805 0,0.245155 0.01584,0.727558 0.02376,0.474495 0.02376,0.71965 0,0.158165 1.425807,0.158165 1.718891,0 1.718892,-1.731905 z m 12.489938,-1.93752 q 0,0.158165 -0.174266,0.158165 -0.301004,0 -2.384267,-0.118625 -0.04753,2.000787 -0.04753,2.791611 0,0.933174 0.07129,2.807428 0.07921,1.874254 0.07921,2.807426 0,0.150257 -0.07129,0.189799 -0.02376,0.01582 -0.221793,0.03954 -0.475269,0.06327 -1.394122,0.06327 -1.021829,0 -1.43373,-0.06327 -0.221792,-0.03954 -0.221792,-0.245155 0,-0.933172 0.07922,-2.799519 0.07921,-1.866345 0.07921,-2.799519 0,-0.616843 -0.06337,-2.752069 -1.584231,0.158165 -2.526848,0.158165 -0.126738,0 -0.126738,-0.07908 0,-0.102807 0.110896,-0.608936 0.126738,-0.553576 0.14258,-0.6722 0.02376,-0.371688 0.05544,-0.743375 0.05545,-0.593119 0.190108,-0.593119 0.01584,0 0.110897,0.0079 1.283226,0.166073 3.794232,0.166073 0.712904,0 2.629823,-0.150257 1.02975,-0.07909 1.037671,-0.07909 0.158423,0 0.182187,0.02372 0.02376,0.01582 0.03168,0.150256 0,0.213523 -0.01584,0.593119 -0.01584,0.419137 -0.01584,0.593118 0,0.197706 0.04753,0.58521 0.05545,0.379596 0.05545,0.569394 z m 12.37904,3.139573 q 0,2.467373 -1.57631,4.136012 -1.607994,1.692365 -4.071473,1.692365 -2.447636,0 -4.063552,-1.708181 -1.58423,-1.66864 -1.58423,-4.120196 0,-2.459464 1.58423,-4.136012 1.615916,-1.716089 4.063552,-1.716089 2.431795,0 4.055631,1.716089 1.592152,1.692364 1.592152,4.136012 z m -3.002117,-0.01582 q 0,-1.186236 -0.720826,-2.016602 -0.752509,-0.869907 -1.92484,-0.869907 -1.116882,0 -1.893156,0.90154 -0.752509,0.869907 -0.752509,2.000786 0,1.209961 0.704982,2.016602 0.744589,0.846183 1.940683,0.846183 1.116883,0 1.901077,-0.893632 0.744589,-0.85409 0.744589,-1.98497 z"
       id="path2" />
    <path
       d="m 61.165814,26.737512 q 0,1.455118 -0.910933,2.412016 -1.037671,1.099246 -3.64373,1.099246 -0.198029,0 -0.570323,-0.0079 -0.380216,0 -0.562403,0 -2.922905,0 -3.477386,-0.118623 -0.229713,-0.04745 -0.229713,-0.245156 0,-0.846183 0.09506,-2.562272 0.102975,-1.716089 0.102975,-2.570179 0,-0.917356 -0.09506,-3.447995 -0.02376,-0.648476 -0.08713,-1.945428 l -0.0079,-0.110716 q -0.0079,-0.150256 0.245555,-0.181889 0.261398,-0.03163 1.837708,-0.03163 2.526848,0 2.954591,0.01582 1.948603,0.07117 2.875378,0.63266 1.227779,0.751283 1.227779,2.538547 0,0.466586 -0.285161,0.98853 -0.20595,0.371688 -0.538638,0.743375 -0.293083,0.324238 -0.293083,0.300514 0,0.05535 0.20595,0.173981 0.554481,0.31633 0.871327,1.004347 0.285161,0.616843 0.285161,1.312768 z m -3.406096,-4.452341 q 0,-0.68011 -0.681219,-0.90154 -0.380215,-0.118624 -1.251542,-0.118624 -0.855485,0 -0.855485,0.126532 0,0.150257 -0.03169,0.458678 -0.02376,0.300513 -0.02376,0.45077 0,0.790825 0.13466,0.885724 0.08713,0.07117 1.005986,0.07117 1.703048,0 1.703048,-0.972714 z m 0.237635,4.420709 q 0,-0.711742 -0.594087,-0.964806 -0.380216,-0.158165 -1.2357,-0.158165 -1.021829,0 -1.108962,0.07909 -0.08713,0.07117 -0.08713,0.964806 0,0.933172 0.102975,1.03598 0.102975,0.0949 1.140646,0.0949 0.855484,0 1.204015,-0.13444 0.578245,-0.229339 0.578245,-0.917356 z m 15.151443,3.250289 q 0,0.142348 -0.198029,0.197705 -0.237634,0.06327 -1.473334,0.06327 -1.132726,0 -1.457492,-0.06327 -0.26932,-0.05535 -0.34061,-0.35587 -0.269319,-1.138787 -0.419821,-1.21787 -0.126738,-0.05536 -2.12287,-0.05536 -1.346596,0 -1.433728,0.07117 -0.13466,0.126532 -0.301005,0.846183 -0.150501,0.656384 -0.364373,0.711741 -0.269318,0.06327 -1.806023,0.06327 -1.211936,0 -1.211936,-0.229339 0,-0.205614 1.790181,-5.053369 1.940682,-5.243166 2.107027,-5.76511 0.09506,-0.300514 0.221792,-0.300514 0.213871,0 0.657456,0.03954 0.451506,0.03954 0.673298,0.03954 0.213871,0 0.625771,-0.02372 0.419821,-0.03164 0.625771,-0.03164 0.150502,0 0.277241,0.260972 0.388136,0.830366 2.265449,5.693937 1.885235,4.895204 1.885235,5.108728 z m -5.616098,-7.204412 q -0.166344,0.347963 -0.562402,1.510475 -0.427742,1.233686 -0.427742,1.447209 0,0.142348 0.47527,0.158165 0.245555,0.01582 0.807957,0.01582 0.522796,0 0.578244,-0.126532 0.01584,-0.03954 0.01584,-0.110715 0,-0.260972 -0.364373,-1.439301 -0.356452,-1.138787 -0.522796,-1.455117 z m 17.551559,-3.447995 q 0,0.90154 -0.07921,2.712528 -0.07129,1.80308 -0.07129,2.712528 v 5.211535 q 0,0.213521 -0.229713,0.213521 -0.190108,0 -0.578244,0.01582 -0.380215,0.01582 -0.570323,0.01582 -0.20595,0 -0.61785,-0.03164 -0.4119,-0.03163 -0.61785,-0.03163 -0.14258,0 -0.34061,-0.260972 -0.570323,-0.7671 -2.566453,-3.400546 -0.546559,-0.735467 -1.663443,-2.166859 -0.03169,-0.04745 -0.118817,-0.0949 -0.06337,0.05535 -0.06337,0.173981 0,0.917357 0.04753,2.75207 0.05545,1.834713 0.05545,2.752069 0,0.276788 -0.213871,0.276788 h -2.74072 q -0.229713,0 -0.229713,-0.245155 0,-0.85409 0.07922,-2.578087 0.08713,-1.723998 0.08713,-2.585997 0,-0.909448 -0.07922,-2.720436 -0.07129,-1.810988 -0.07129,-2.712529 0,-0.173981 0.308925,-0.173981 0.459426,0 1.132724,-0.06327 0.158423,-0.01582 0.625771,-0.102807 0.396058,-0.07117 0.625772,-0.07117 0.09506,0 0.293082,0.268881 l 2.95459,4.041113 q 0.396058,0.545669 1.196094,1.597465 0.19803,0.245156 0.34061,0.245156 0.102975,0 0.102975,-0.616843 0,-0.830367 -0.09506,-2.499006 -0.08713,-1.66864 -0.08713,-2.506913 0,-0.292606 0.166344,-0.292606 0.47527,0 1.433729,-0.03954 0.95846,-0.03954 1.433728,-0.03954 0.150503,0 0.150503,0.245155 z m 11.753269,10.407251 q 0,0.340054 -0.293083,0.442861 -0.237635,0.07909 -1.251542,0.07909 -0.974303,0 -1.425808,-0.07909 -0.213871,-0.03954 -0.285161,-0.07908 -0.06337,-0.04745 -0.166345,-0.229339 -0.578244,-1.059705 -1.148567,-2.119409 -0.942617,-1.708181 -1.124804,-1.882163 -0.855484,0.308422 -0.855484,0.442862 0,0.593118 0.04753,1.795172 0.04753,1.194144 0.04753,1.795171 0,0.245156 -0.213871,0.276788 -0.4119,0.06327 -1.489177,0.06327 -1.029749,0 -1.362438,-0.06327 -0.229714,-0.04745 -0.229714,-0.245155 0,-0.85409 0.07921,-2.578087 0.08713,-1.723998 0.08713,-2.585997 0,-0.917356 -0.07921,-2.75207 -0.07921,-1.84262 -0.07921,-2.759977 0,-0.173981 0.166343,-0.173981 0.245557,0 0.736668,0.02372 0.499033,0.02372 0.744589,0.02372 0.253476,0 0.752509,-0.02372 0.499033,-0.02372 0.744588,-0.02372 0.13466,0 0.13466,0.142348 0,0.58521 -0.06337,1.771447 -0.05545,1.178328 -0.05545,1.763539 0,0.680109 0.372295,0.680109 0.942617,0 1.465413,-0.514037 0.388136,-0.379595 0.784194,-1.383943 0.253477,-0.767099 0.831721,-2.261757 0.08713,-0.197706 0.356452,-0.197706 0.20595,0 0.617849,0.02372 0.419822,0.02372 0.625771,0.02372 0.213872,0 0.633693,-0.01582 0.427743,-0.01582 0.633693,-0.01582 0.190108,0 0.190108,0.18189 0,0.260972 -0.33269,1.273227 -0.982222,2.989317 -2.257528,3.732692 -0.261398,0.150257 -0.261398,0.245156 0,-0.0079 1.457492,2.372473 1.465414,2.380382 1.465414,2.831152 z"
       id="path3"
       style="font-size:16.2093px;font-family:'Berlin Sans FB Demi';-inkscape-font-specification:'Berlin Sans FB Demi';letter-spacing:0.528564px;word-spacing:0px;fill:#f6914d;stroke-width:2.24747" />
  </g>
</svg>
